<?xml version="1.0" encoding="UTF-8"?>
<svg id="_Слой_1" data-name="Слой 1" xmlns="http://www.w3.org/2000/svg" viewBox="0 0 1468.5 500">
  <defs>
    <style>
      .cls-1 {
        fill: #7dc1f9;
        stroke-width: 0px;
      }
    </style>
  </defs>
  <g id="_С_текстом" data-name="С текстом">
    <g>
      <g id="Shape_08">
        <rect class="cls-1" x="175.8" y="392.53" width="85.79" height="64.34" transform="translate(643.39 206.01) rotate(90)"/>
        <path class="cls-1" d="M251.23,468.48h-65.6v-87.05l21.97-21.97h65.6v87.05l-21.97,21.97ZM187.41,466.7h63.08l20.92-20.92v-84.52h-63.08l-20.92,20.92v84.52Z"/>
      </g>
      <g id="Shape_07">
        <polygon class="cls-1" points="250.86 360.36 186.52 360.36 186.52 360.36 250.86 296.02 250.86 360.36"/>
        <path class="cls-1" d="M251.23,361.25h-66.87l88.84-88.84v66.87l-21.97,21.97ZM188.68,359.46h61.81l20.92-20.92v-61.81l-82.74,82.74Z"/>
      </g>
      <g id="Shape_06">
        <polygon class="cls-1" points="186.52 274.57 250.86 274.57 250.86 274.57 186.52 338.91 186.52 274.57"/>
        <path class="cls-1" d="M185.63,341.07v-66.87l21.97-21.97h66.87l-88.84,88.84ZM187.41,274.94v61.81l82.74-82.74h-61.81l-20.92,20.92Z"/>
      </g>
      <g id="Shapae_05">
        <path class="cls-1" d="M251.23,254.02h-65.6v-87.05l21.97-21.97h65.6v87.05l-21.97,21.97ZM187.41,252.23h63.08l20.92-20.92v-84.52h-63.08l-20.92,20.92v84.52Z"/>
        <rect class="cls-1" x="175.8" y="178.06" width="85.79" height="64.34" transform="translate(428.92 -8.46) rotate(90)"/>
      </g>
      <g id="Shape_04">
        <rect class="cls-1" x="392.95" y="49.98" width="34.54" height="1.79" transform="translate(84.18 304.97) rotate(-45)"/>
        <polygon class="cls-1" points="250.86 124.44 315.2 60.1 400.99 60.1 400.99 124.44 250.86 124.44"/>
        <path class="cls-1" d="M401.36,125.34h-152.65l87.57-87.57h87.05v65.6l-21.97,21.97ZM253.02,123.55h147.6l20.92-20.92v-63.08h-84.52l-84,84Z"/>
      </g>
      <g id="Shape_03">
        <polygon class="cls-1" points="229.41 60.1 293.75 60.1 293.75 60.1 229.41 124.44 229.41 60.1"/>
        <path class="cls-1" d="M228.52,126.6V59.73l21.97-21.97h66.87l-88.84,88.84ZM230.31,60.47v61.81l82.74-82.74h-61.81l-20.92,20.92Z"/>
      </g>
      <g id="Shape_02">
        <polygon class="cls-1" points="207.97 124.44 143.63 124.44 143.63 124.44 207.97 60.1 207.97 124.44"/>
        <path class="cls-1" d="M208.34,125.34h-66.87l88.84-88.84v66.87l-21.97,21.97ZM145.78,123.55h61.81l20.92-20.92v-61.81l-82.74,82.74Z"/>
      </g>
      <g id="Shape_01">
        <polygon class="cls-1" points="186.52 60.1 122.18 124.44 36.39 124.44 36.39 60.1 186.52 60.1"/>
        <path class="cls-1" d="M122.55,125.34H35.5V59.73l21.97-21.97h152.65l-87.57,87.57ZM37.29,123.55h84.52l84-84H58.21l-20.92,20.92v63.08Z"/>
      </g>
      <rect class="cls-1" x="243.18" y="371.53" width="34.12" height="1.79" transform="translate(-187.12 293.1) rotate(-45)"/>
      <rect class="cls-1" x="243.18" y="157.06" width="34.12" height="1.79" transform="translate(-35.47 230.28) rotate(-45)"/>
    </g>
    <g>
      <path class="cls-1" d="M360.35,468.61c-14,0-26.44-2.92-37.26-8.79-10.84-5.87-19.39-13.88-25.68-24.07-6.27-10.18-9.41-21.8-9.41-34.83s3.14-24.9,9.41-35.09c6.29-10.18,14.84-18.16,25.68-23.95,10.82-5.79,23.25-8.67,37.26-8.67s26.24,2.88,37.16,8.67c10.92,5.79,19.47,13.73,25.66,23.83,6.21,10.1,9.29,21.84,9.29,35.21s-3.08,24.65-9.29,34.83c-6.19,10.18-14.74,18.2-25.66,24.07-10.92,5.87-23.29,8.79-37.16,8.79ZM360.35,437.32c6.37,0,12.07-1.45,17.13-4.4,5.03-2.92,9.03-7.12,11.97-12.59,2.92-5.45,4.4-11.93,4.4-19.41s-1.47-14.18-4.4-19.57c-2.94-5.37-6.94-9.53-11.97-12.45-5.05-2.94-10.76-4.4-17.13-4.4s-12.05,1.45-17.11,4.4c-5.05,2.92-9.07,7.08-12.09,12.45-3.02,5.39-4.52,11.92-4.52,19.57s1.49,13.96,4.52,19.41c3.02,5.47,7.04,9.67,12.09,12.59,5.05,2.94,10.76,4.4,17.11,4.4Z"/>
      <path class="cls-1" d="M484.27,466.66l-47.42-131.5h35.94l39.35,113.16h-17.11l41.06-113.16h32.26l39.84,113.16h-17.11l40.58-113.16h33.74l-47.68,131.5h-36.9l-34.95-97.03h11.24l-36.18,97.03h-36.66Z"/>
      <path class="cls-1" d="M763.17,333.2c10.42,0,19.75,2.07,27.99,6.23,8.22,4.16,14.7,10.5,19.43,19.08,4.71,8.55,7.08,19.51,7.08,32.86v75.29h-38.13v-69.42c0-10.58-2.33-18.4-6.96-23.45-4.63-5.05-11.2-7.58-19.67-7.58-6.03,0-11.46,1.25-16.25,3.78-4.81,2.53-8.55,6.41-11.26,11.62-2.69,5.21-4.02,11.9-4.02,20.03v65.03h-38.13v-131.5h36.42v36.42l-6.84-11c4.71-8.79,11.48-15.56,20.27-20.29,8.81-4.71,18.84-7.08,30.08-7.08Z"/>
      <path class="cls-1" d="M896.38,468.61c-11.24,0-22.04-1.33-32.38-4.02-10.36-2.71-18.54-6.09-24.57-10.14l12.71-27.39c6.03,3.76,13.15,6.8,21.38,9.17,8.24,2.37,16.33,3.54,24.33,3.54,8.79,0,15.02-1.05,18.7-3.16,3.66-2.13,5.49-5.05,5.49-8.81,0-3.08-1.43-5.41-4.28-6.96-2.84-1.55-6.64-2.73-11.36-3.54-4.73-.82-9.91-1.63-15.54-2.45-5.61-.82-11.28-1.91-16.99-3.3-5.69-1.37-10.92-3.46-15.63-6.23-4.73-2.76-8.51-6.52-11.36-11.26-2.86-4.71-4.28-10.82-4.28-18.32,0-8.31,2.39-15.65,7.2-22,4.81-6.37,11.78-11.36,20.91-15.04,9.11-3.66,20.03-5.49,32.74-5.49,8.97,0,18.1.97,27.37,2.92,9.29,1.97,17.03,4.81,23.23,8.55l-12.71,27.13c-6.37-3.74-12.75-6.31-19.2-7.7-6.42-1.37-12.67-2.07-18.7-2.07-8.47,0-14.66,1.13-18.58,3.42-3.9,2.29-5.87,5.21-5.87,8.79,0,3.26,1.43,5.71,4.28,7.34,2.86,1.63,6.64,2.92,11.38,3.9,4.71.99,9.91,1.85,15.52,2.57,5.63.74,11.28,1.85,16.99,3.3,5.71,1.47,10.88,3.54,15.52,6.25,4.65,2.69,8.43,6.35,11.38,11,2.92,4.63,4.4,10.7,4.4,18.2,0,8.16-2.45,15.36-7.34,21.64-4.87,6.27-11.93,11.2-21.14,14.78-9.19,3.58-20.41,5.37-33.6,5.37Z"/>
      <path class="cls-1" d="M1047.2,468.61c-15,0-28.17-2.92-39.48-8.79-11.32-5.87-20.09-13.88-26.28-24.07-6.19-10.18-9.29-21.8-9.29-34.83s3.06-24.9,9.17-35.09c6.11-10.18,14.46-18.16,25.06-23.95,10.58-5.79,22.56-8.67,35.92-8.67s24.49,2.73,34.83,8.18c10.34,5.47,18.54,13.29,24.57,23.47,6.03,10.18,9.05,22.36,9.05,36.54,0,1.47-.1,3.14-.26,5.01-.16,1.87-.32,3.62-.48,5.25h-106.82v-22.24h86.77l-14.66,6.6c0-6.84-1.39-12.79-4.16-17.84-2.78-5.05-6.6-9.01-11.5-11.86-4.87-2.84-10.58-4.28-17.11-4.28s-12.25,1.43-17.23,4.28c-4.97,2.84-8.85,6.84-11.62,11.97-2.76,5.13-4.16,11.2-4.16,18.2v5.87c0,7.18,1.59,13.49,4.77,18.96,3.18,5.45,7.66,9.61,13.45,12.45,5.77,2.86,12.59,4.28,20.41,4.28,7,0,13.15-1.05,18.46-3.16,5.29-2.13,10.12-5.31,14.54-9.55l20.29,22c-6.05,6.84-13.63,12.11-22.74,15.77-9.13,3.66-19.63,5.49-31.53,5.49Z"/>
      <path class="cls-1" d="M1216.1,333.2c10.42,0,19.75,2.07,27.99,6.23,8.22,4.16,14.7,10.5,19.43,19.08,4.71,8.55,7.08,19.51,7.08,32.86v75.29h-38.13v-69.42c0-10.58-2.33-18.4-6.96-23.45-4.63-5.05-11.2-7.58-19.67-7.58-6.03,0-11.46,1.25-16.25,3.78-4.81,2.53-8.55,6.41-11.26,11.62-2.69,5.21-4.02,11.9-4.02,20.03v65.03h-38.13v-131.5h36.42v36.42l-6.84-11c4.71-8.79,11.48-15.56,20.27-20.29,8.81-4.71,18.84-7.08,30.08-7.08Z"/>
      <path class="cls-1" d="M1362.5,468.61c-12.37,0-23.55-2.8-33.48-8.43-9.95-5.61-17.8-13.47-23.59-23.57-5.79-10.1-8.67-22-8.67-35.69s2.88-25.84,8.67-35.94c5.79-10.1,13.65-17.92,23.59-23.45,9.93-5.55,21.1-8.31,33.48-8.31,11.08,0,20.79,2.45,29.1,7.32,8.29,4.89,14.74,12.31,19.29,22.26,4.58,9.93,6.84,22.64,6.84,38.13s-2.19,27.99-6.58,37.99c-4.42,10.03-10.72,17.48-18.96,22.38-8.24,4.87-18.12,7.32-29.7,7.32ZM1369.11,437.32c6.19,0,11.82-1.45,16.87-4.4,5.05-2.92,9.07-7.12,12.09-12.59,3.02-5.45,4.52-11.93,4.52-19.41s-1.49-14.18-4.52-19.57c-3.02-5.37-7.04-9.53-12.09-12.45-5.05-2.94-10.68-4.4-16.87-4.4s-12.05,1.45-17.11,4.4c-5.05,2.92-9.09,7.08-12.09,12.45-3.02,5.39-4.54,11.92-4.54,19.57s1.51,13.96,4.54,19.41c3,5.47,7.04,9.67,12.09,12.59,5.05,2.94,10.76,4.4,17.11,4.4ZM1403.58,466.66v-26.89l.74-39.11-2.45-38.87v-76.5h38.13v181.37h-36.42Z"/>
    </g>
  </g>
</svg>