<svg width="26" height="26" viewBox="0 0 26 26" fill="none" xmlns="http://www.w3.org/2000/svg">
<path d="M9.41485 21.9375H4.875C4.65952 21.9375 4.45285 21.8519 4.30048 21.6996C4.14811 21.5472 4.0625 21.3405 4.0625 21.125V16.5852C4.06214 16.4797 4.08258 16.3751 4.12266 16.2776C4.16274 16.18 4.22168 16.0912 4.2961 16.0164L16.4836 3.82894C16.5592 3.75217 16.6493 3.69121 16.7487 3.64959C16.8481 3.60798 16.9548 3.58655 17.0625 3.58655C17.1703 3.58655 17.2769 3.60798 17.3763 3.64959C17.4757 3.69121 17.5658 3.75217 17.6414 3.82894L22.1711 8.35863C22.2479 8.43423 22.3088 8.52435 22.3504 8.62373C22.3921 8.72312 22.4135 8.82979 22.4135 8.93753C22.4135 9.04528 22.3921 9.15195 22.3504 9.25133C22.3088 9.35072 22.2479 9.44084 22.1711 9.51644L9.9836 21.7039C9.90881 21.7784 9.82008 21.8373 9.72249 21.8774C9.62489 21.9175 9.52035 21.9379 9.41485 21.9375V21.9375Z" stroke="#BFC1C8" stroke-width="2" stroke-linecap="round" stroke-linejoin="round"/>
<path d="M13.8125 6.5L19.5 12.1875" stroke="#BFC1C8" stroke-width="2" stroke-linecap="round" stroke-linejoin="round"/>
<path d="M16.25 19.5L20.3125 15.4375L19.5 12.1875" stroke="#BFC1C8" stroke-width="2" stroke-linecap="round" stroke-linejoin="round"/>
<path d="M4.11328 16.3008L9.69922 21.8867" stroke="#BFC1C8" stroke-width="2" stroke-linecap="round" stroke-linejoin="round"/>
</svg>
